<svg version="1.2" xmlns="http://www.w3.org/2000/svg" viewBox="0 0 1920 1080" width="1920" height="1080">
	<title>New Project</title>
	<defs>
		<clipPath clipPathUnits="userSpaceOnUse" id="cp1">
			<path d="m1925.27-0.19v1095.17h-1927.27v-1095.17z"/>
		</clipPath>
		<linearGradient id="g1" x2="1" gradientUnits="userSpaceOnUse" gradientTransform="matrix(0,-528.936,145.962,0,867.237,521.109)">
			<stop offset="0" stop-color="#4f525d"/>
			<stop offset="1" stop-color="#402738"/>
		</linearGradient>
		<linearGradient id="g2" x2="1" gradientUnits="userSpaceOnUse" gradientTransform="matrix(0,-528.936,145.962,0,867.237,521.109)">
			<stop offset="0" stop-color="#9d7c90"/>
			<stop offset="1" stop-color="#775477"/>
		</linearGradient>
		<linearGradient id="g3" x2="1" gradientUnits="userSpaceOnUse" gradientTransform="matrix(0,-33.154,16.972,0,373.993,224.579)">
			<stop offset="0" stop-color="#9d7c90"/>
			<stop offset="1" stop-color="#775477"/>
		</linearGradient>
		<linearGradient id="g4" x2="1" gradientUnits="userSpaceOnUse" gradientTransform="matrix(0,-186.412,20.743,0,782.901,178.585)">
			<stop offset="0" stop-color="#9d7c90"/>
			<stop offset="1" stop-color="#775477"/>
		</linearGradient>
		<linearGradient id="g5" x2="1" gradientUnits="userSpaceOnUse" gradientTransform="matrix(0,-1132.739,539.634,0,2244.527,1133.311)">
			<stop offset="0" stop-color="#4a4d58"/>
			<stop offset="1" stop-color="#2c1b2d"/>
		</linearGradient>
		<linearGradient id="g6" x2="1" gradientUnits="userSpaceOnUse" gradientTransform="matrix(0,-1140.097,303.128,0,2599.552,1133.311)">
			<stop offset="0" stop-color="#9d7c90"/>
			<stop offset="1" stop-color="#775477"/>
		</linearGradient>
		<linearGradient id="g7" x2="1" gradientUnits="userSpaceOnUse" gradientTransform="matrix(0,-463.406,67.462,0,2367.054,463.978)">
			<stop offset="0" stop-color="#9d7c90"/>
			<stop offset="1" stop-color="#775477"/>
		</linearGradient>
		<linearGradient id="g8" x2="1" gradientUnits="userSpaceOnUse" gradientTransform="matrix(0,-1111.356,251.865,0,3014.262,1111.927)">
			<stop offset="0" stop-color="#9d7c90"/>
			<stop offset="1" stop-color="#775477"/>
		</linearGradient>
		<linearGradient id="g9" x2="1" gradientUnits="userSpaceOnUse" gradientTransform="matrix(0,-715.927,95.814,0,2966.168,709.141)">
			<stop offset="0" stop-color="#9d7c90"/>
			<stop offset="1" stop-color="#775477"/>
		</linearGradient>
		<linearGradient id="g10" x2="1" gradientUnits="userSpaceOnUse" gradientTransform="matrix(0,-669.333,109.814,0,2500.525,1133.311)">
			<stop offset="0" stop-color="#9d7c90"/>
			<stop offset="1" stop-color="#775477"/>
		</linearGradient>
		<linearGradient id="g11" x2="1" gradientUnits="userSpaceOnUse" gradientTransform="matrix(0,-844.747,63.68,0,4526.011,1108.623)">
			<stop offset="0" stop-color="#9d7c90"/>
			<stop offset="1" stop-color="#775477"/>
		</linearGradient>
		<linearGradient id="g12" x2="1" gradientUnits="userSpaceOnUse" gradientTransform="matrix(0,-602.866,57.567,0,3266.343,1111.927)">
			<stop offset="0" stop-color="#9d7c90"/>
			<stop offset="1" stop-color="#775477"/>
		</linearGradient>
		<linearGradient id="g13" x2="1" gradientUnits="userSpaceOnUse" gradientTransform="matrix(0,-356.389,21.644,0,3076.839,1116.478)">
			<stop offset="0" stop-color="#9d7c90"/>
			<stop offset="1" stop-color="#775477"/>
		</linearGradient>
		<linearGradient id="g14" x2="1" gradientUnits="userSpaceOnUse" gradientTransform="matrix(0,-1132.739,539.634,0,-530.261,1125.097)">
			<stop offset="0" stop-color="#4a4d58"/>
			<stop offset="1" stop-color="#2c1b2d"/>
		</linearGradient>
		<linearGradient id="g15" x2="1" gradientUnits="userSpaceOnUse" gradientTransform="matrix(0,-1140.097,303.128,0,-885.285,1125.097)">
			<stop offset="0" stop-color="#9d7c90"/>
			<stop offset="1" stop-color="#775477"/>
		</linearGradient>
		<linearGradient id="g16" x2="1" gradientUnits="userSpaceOnUse" gradientTransform="matrix(0,-463.406,67.462,0,-652.79,455.764)">
			<stop offset="0" stop-color="#9d7c90"/>
			<stop offset="1" stop-color="#775477"/>
		</linearGradient>
		<linearGradient id="g17" x2="1" gradientUnits="userSpaceOnUse" gradientTransform="matrix(0,-1111.356,251.865,0,-1299.997,1103.714)">
			<stop offset="0" stop-color="#9d7c90"/>
			<stop offset="1" stop-color="#775477"/>
		</linearGradient>
		<linearGradient id="g18" x2="1" gradientUnits="userSpaceOnUse" gradientTransform="matrix(0,-715.927,95.815,0,-1251.9,700.927)">
			<stop offset="0" stop-color="#9d7c90"/>
			<stop offset="1" stop-color="#775477"/>
		</linearGradient>
		<linearGradient id="g19" x2="1" gradientUnits="userSpaceOnUse" gradientTransform="matrix(0,-669.333,109.814,0,-786.258,1125.097)">
			<stop offset="0" stop-color="#9d7c90"/>
			<stop offset="1" stop-color="#775477"/>
		</linearGradient>
		<linearGradient id="g20" x2="1" gradientUnits="userSpaceOnUse" gradientTransform="matrix(0,-844.747,63.68,0,-2811.737,1100.409)">
			<stop offset="0" stop-color="#9d7c90"/>
			<stop offset="1" stop-color="#775477"/>
		</linearGradient>
		<linearGradient id="g21" x2="1" gradientUnits="userSpaceOnUse" gradientTransform="matrix(0,-602.866,57.567,0,-1552.082,1103.714)">
			<stop offset="0" stop-color="#9d7c90"/>
			<stop offset="1" stop-color="#775477"/>
		</linearGradient>
		<linearGradient id="g22" x2="1" gradientUnits="userSpaceOnUse" gradientTransform="matrix(0,-356.389,21.644,0,-1362.56,1108.265)">
			<stop offset="0" stop-color="#9d7c90"/>
			<stop offset="1" stop-color="#775477"/>
		</linearGradient>
		<linearGradient id="g23" x2="1" gradientUnits="userSpaceOnUse" gradientTransform="matrix(0,-1095.166,777.377,0,1919.399,1094.98)">
			<stop offset="0" stop-color="#595c66"/>
			<stop offset="1" stop-color="#443444"/>
		</linearGradient>
		<linearGradient id="g24" x2="1" gradientUnits="userSpaceOnUse" gradientTransform="matrix(0,-949.999,128.843,0,3596.82,949.813)">
			<stop offset="0" stop-color="#9d7c90"/>
			<stop offset="1" stop-color="#775477"/>
		</linearGradient>
		<linearGradient id="g25" x2="1" gradientUnits="userSpaceOnUse" gradientTransform="matrix(0,-406.681,235.776,0,1782.425,406.495)">
			<stop offset="0" stop-color="#9d7c90"/>
			<stop offset="1" stop-color="#775477"/>
		</linearGradient>
		<linearGradient id="g26" x2="1" gradientUnits="userSpaceOnUse" gradientTransform="matrix(0,-281.638,101.273,0,1657.041,278.998)">
			<stop offset="0" stop-color="#9d7c90"/>
			<stop offset="1" stop-color="#775477"/>
		</linearGradient>
		<linearGradient id="g27" x2="1" gradientUnits="userSpaceOnUse" gradientTransform="matrix(0,-41.187,249.306,0,1274.805,38.547)">
			<stop offset="0" stop-color="#9d7c90"/>
			<stop offset="1" stop-color="#775477"/>
		</linearGradient>
		<linearGradient id="g28" x2="1" gradientUnits="userSpaceOnUse" gradientTransform="matrix(0,-144.562,71.086,0,1599.126,406.495)">
			<stop offset="0" stop-color="#9d7c90"/>
			<stop offset="1" stop-color="#775477"/>
		</linearGradient>
		<linearGradient id="g29" x2="1" gradientUnits="userSpaceOnUse" gradientTransform="matrix(0,-224.362,159.029,0,1695.091,259.379)">
			<stop offset="0" stop-color="#9d7c90"/>
			<stop offset="1" stop-color="#775477"/>
		</linearGradient>
		<linearGradient id="g30" x2="1" gradientUnits="userSpaceOnUse" gradientTransform="matrix(0,-642.37,65.791,0,3446.832,642.183)">
			<stop offset="0" stop-color="#9d7c90"/>
			<stop offset="1" stop-color="#775477"/>
		</linearGradient>
		<linearGradient id="g31" x2="1" gradientUnits="userSpaceOnUse" gradientTransform="matrix(0,-236.181,173.819,0,1838.774,235.995)">
			<stop offset="0" stop-color="#9d7c90"/>
			<stop offset="1" stop-color="#775477"/>
		</linearGradient>
		<linearGradient id="g32" x2="1" gradientUnits="userSpaceOnUse" gradientTransform="matrix(0,-53.032,121.677,0,1516.415,278.998)">
			<stop offset="0" stop-color="#9d7c90"/>
			<stop offset="1" stop-color="#775477"/>
		</linearGradient>
		<linearGradient id="g33" x2="1" gradientUnits="userSpaceOnUse" gradientTransform="matrix(0,-388.697,158.725,0,1443.377,384.217)">
			<stop offset="0" stop-color="#4f525d"/>
			<stop offset="1" stop-color="#402738"/>
		</linearGradient>
		<linearGradient id="g34" x2="1" gradientUnits="userSpaceOnUse" gradientTransform="matrix(0,-388.697,124.4,0,1525.611,384.217)">
			<stop offset="0" stop-color="#9d7c90"/>
			<stop offset="1" stop-color="#775477"/>
		</linearGradient>
		<linearGradient id="g35" x2="1" gradientUnits="userSpaceOnUse" gradientTransform="matrix(-52.83,-931.569,230.16,-13.053,2416.452,1036.18)">
			<stop offset="0" stop-color="#70737c"/>
			<stop offset="1" stop-color="#5f4a58"/>
		</linearGradient>
		<linearGradient id="g36" x2="1" gradientUnits="userSpaceOnUse" gradientTransform="matrix(-49.067,-865.209,178.379,-10.116,2522.766,976.688)">
			<stop offset="0" stop-color="#9d7c90"/>
			<stop offset="1" stop-color="#775477"/>
		</linearGradient>
		<linearGradient id="g37" x2="1" gradientUnits="userSpaceOnUse" gradientTransform="matrix(0,-836.881,90.773,0,3613.974,1038.809)">
			<stop offset="0" stop-color="#9d7c90"/>
			<stop offset="1" stop-color="#775477"/>
		</linearGradient>
		<linearGradient id="g38" x2="1" gradientUnits="userSpaceOnUse" gradientTransform="matrix(0,-318.112,1927.596,0,972.712,1223.662)">
			<stop offset="0" stop-color="#6a625e"/>
			<stop offset="1" stop-color="#695c69"/>
		</linearGradient>
		<linearGradient id="g39" x2="1" gradientUnits="userSpaceOnUse" gradientTransform="matrix(-1359.378,0,0,-251.041,1923.504,972.621)">
			<stop offset="0" stop-color="#9d7c90"/>
			<stop offset="1" stop-color="#775477"/>
		</linearGradient>
		<linearGradient id="g40" x2="1" gradientUnits="userSpaceOnUse" gradientTransform="matrix(63.427,-622.195,5788.955,590.134,620.459,1574.825)">
			<stop offset="0" stop-color="#382c44"/>
			<stop offset="1" stop-color="#594c4c"/>
		</linearGradient>
		<linearGradient id="g41" x2="1" gradientUnits="userSpaceOnUse" gradientTransform="matrix(60.487,-593.355,5387.684,549.228,667.631,1477.826)">
			<stop offset="0" stop-color="#382c44"/>
			<stop offset="1" stop-color="#594c4c"/>
		</linearGradient>
		<linearGradient id="g42" x2="1" gradientUnits="userSpaceOnUse" gradientTransform="matrix(45.018,-441.604,2501.162,254.972,780.663,1335.959)">
			<stop offset="0" stop-color="#382c44"/>
			<stop offset="1" stop-color="#594c4c"/>
		</linearGradient>
		<linearGradient id="g43" x2="1" gradientUnits="userSpaceOnUse" gradientTransform="matrix(7.561,-74.175,318.468,32.465,1347.28,1053.005)">
			<stop offset="0" stop-color="#9d7c90"/>
			<stop offset="1" stop-color="#775477"/>
		</linearGradient>
		<linearGradient id="g44" x2="1" gradientUnits="userSpaceOnUse" gradientTransform="matrix(25.94,-254.463,1530.163,155.987,1027.4,1194.086)">
			<stop offset="0" stop-color="#9d7c90"/>
			<stop offset="1" stop-color="#775477"/>
		</linearGradient>
		<linearGradient id="g45" x2="1" gradientUnits="userSpaceOnUse" gradientTransform="matrix(4.26,-41.791,489.776,49.928,1189.457,1223.676)">
			<stop offset="0" stop-color="#9d7c90"/>
			<stop offset="1" stop-color="#775477"/>
		</linearGradient>
		<linearGradient id="g46" x2="1" gradientUnits="userSpaceOnUse" gradientTransform="matrix(3,-29.427,84.22,8.586,1061.879,1052.61)">
			<stop offset="0" stop-color="#9d7c90"/>
			<stop offset="1" stop-color="#775477"/>
		</linearGradient>
		<linearGradient id="g47" x2="1" gradientUnits="userSpaceOnUse" gradientTransform="matrix(1.456,-14.283,21.407,2.182,1111.513,1040.253)">
			<stop offset="0" stop-color="#9d7c90"/>
			<stop offset="1" stop-color="#775477"/>
		</linearGradient>
		<linearGradient id="g48" x2="1" gradientUnits="userSpaceOnUse" gradientTransform="matrix(-647.682,0,0,-129.276,1018.393,1018.426)">
			<stop offset="0" stop-color="#9d7c90"/>
			<stop offset="1" stop-color="#775477"/>
		</linearGradient>
		<linearGradient id="g49" x2="1" gradientUnits="userSpaceOnUse" gradientTransform="matrix(35.988,-353.028,1346.262,137.24,457.65,1223.95)">
			<stop offset="0" stop-color="#382c44"/>
			<stop offset="1" stop-color="#594c4c"/>
		</linearGradient>
		<linearGradient id="g50" x2="1" gradientUnits="userSpaceOnUse" gradientTransform="matrix(-649.164,0,0,-152.895,766.814,1066.958)">
			<stop offset="0" stop-color="#9d7c90"/>
			<stop offset="1" stop-color="#775477"/>
		</linearGradient>
		<linearGradient id="g51" x2="1" gradientUnits="userSpaceOnUse" gradientTransform="matrix(-356.645,0,0,-55.62,844.33,980.801)">
			<stop offset="0" stop-color="#9d7c90"/>
			<stop offset="1" stop-color="#775477"/>
		</linearGradient>
		<linearGradient id="g52" x2="1" gradientUnits="userSpaceOnUse" gradientTransform="matrix(13.395,-131.403,685.903,69.922,183.816,1005.439)">
			<stop offset="0" stop-color="#382c44"/>
			<stop offset="1" stop-color="#594c4c"/>
		</linearGradient>
		<linearGradient id="g53" x2="1" gradientUnits="userSpaceOnUse" gradientTransform="matrix(0,-9.263,440.657,0,456.706,936.693)">
			<stop offset="0" stop-color="#9d7c90"/>
			<stop offset="1" stop-color="#775477"/>
		</linearGradient>
		<linearGradient id="g54" x2="1" gradientUnits="userSpaceOnUse" gradientTransform="matrix(0,-33.52,220.337,0,107.34,954.645)">
			<stop offset="0" stop-color="#9d7c90"/>
			<stop offset="1" stop-color="#775477"/>
		</linearGradient>
		<linearGradient id="g55" x2="1" gradientUnits="userSpaceOnUse" gradientTransform="matrix(0,-14.314,358.272,0,175.186,1006.566)">
			<stop offset="0" stop-color="#9d7c90"/>
			<stop offset="1" stop-color="#775477"/>
		</linearGradient>
		<linearGradient id="g56" x2="1" gradientUnits="userSpaceOnUse" gradientTransform="matrix(0,-7.826,139.737,0,125.671,1045.418)">
			<stop offset="0" stop-color="#9d7c90"/>
			<stop offset="1" stop-color="#775477"/>
		</linearGradient>
		<linearGradient id="g57" x2="1" gradientUnits="userSpaceOnUse" gradientTransform="matrix(0,-95.296,240.421,0,125.477,1223.662)">
			<stop offset="0" stop-color="#9d7c90"/>
			<stop offset="1" stop-color="#775477"/>
		</linearGradient>
		<linearGradient id="g58" x2="1" gradientUnits="userSpaceOnUse" gradientTransform="matrix(0,-42.517,461.427,0,865.578,1213.642)">
			<stop offset="0" stop-color="#9d7c90"/>
			<stop offset="1" stop-color="#775477"/>
		</linearGradient>
		<linearGradient id="g59" x2="1" gradientUnits="userSpaceOnUse" gradientTransform="matrix(0,-21.258,328.507,0,798.488,1213.642)">
			<stop offset="0" stop-color="#9d7c90"/>
			<stop offset="1" stop-color="#775477"/>
		</linearGradient>
		<linearGradient id="g60" x2="1" gradientUnits="userSpaceOnUse" gradientTransform="matrix(0,-28.628,289.211,0,1338.737,1105.128)">
			<stop offset="0" stop-color="#9d7c90"/>
			<stop offset="1" stop-color="#775477"/>
		</linearGradient>
		<linearGradient id="g61" x2="1" gradientUnits="userSpaceOnUse" gradientTransform="matrix(0,-54.293,400.524,0,1470.9,1116.923)">
			<stop offset="0" stop-color="#9d7c90"/>
			<stop offset="1" stop-color="#775477"/>
		</linearGradient>
		<linearGradient id="g62" x2="1" gradientUnits="userSpaceOnUse" gradientTransform="matrix(0,-48.578,313.043,0,1544.716,1115.489)">
			<stop offset="0" stop-color="#9d7c90"/>
			<stop offset="1" stop-color="#775477"/>
		</linearGradient>
		<linearGradient id="g63" x2="1" gradientUnits="userSpaceOnUse" gradientTransform="matrix(14.535,-142.58,508.064,51.793,181.125,1077.818)">
			<stop offset="0" stop-color="#382c44"/>
			<stop offset="1" stop-color="#594c4c"/>
		</linearGradient>
		<linearGradient id="g64" x2="1" gradientUnits="userSpaceOnUse" gradientTransform="matrix(6.522,-63.975,277.342,28.273,111.395,1030.849)">
			<stop offset="0" stop-color="#382c44"/>
			<stop offset="1" stop-color="#594c4c"/>
		</linearGradient>
		<linearGradient id="g65" x2="1" gradientUnits="userSpaceOnUse" gradientTransform="matrix(-168.098,0,0,-34.445,236.329,963.215)">
			<stop offset="0" stop-color="#9d7c90"/>
			<stop offset="1" stop-color="#775477"/>
		</linearGradient>
		<linearGradient id="g66" x2="1" gradientUnits="userSpaceOnUse" gradientTransform="matrix(8.298,-81.401,313.392,31.948,324.604,1086.476)">
			<stop offset="0" stop-color="#382c44"/>
			<stop offset="1" stop-color="#594c4c"/>
		</linearGradient>
		<linearGradient id="g67" x2="1" gradientUnits="userSpaceOnUse" gradientTransform="matrix(-58.061,0,0,-11.46,844.33,1153.787)">
			<stop offset="0" stop-color="#382c44"/>
			<stop offset="1" stop-color="#594c4c"/>
		</linearGradient>
		<linearGradient id="g68" x2="1" gradientUnits="userSpaceOnUse" gradientTransform="matrix(0,-38.625,327.31,0,1710.545,1070.774)">
			<stop offset="0" stop-color="#9d7c90"/>
			<stop offset="1" stop-color="#775477"/>
		</linearGradient>
		<linearGradient id="g69" x2="1" gradientUnits="userSpaceOnUse" gradientTransform="matrix(0,-14.205,164.316,0,1831.924,1082.635)">
			<stop offset="0" stop-color="#9d7c90"/>
			<stop offset="1" stop-color="#775477"/>
		</linearGradient>
		<linearGradient id="g70" x2="1" gradientUnits="userSpaceOnUse" gradientTransform="matrix(0,-29.387,38.163,0,1134.544,1126.36)">
			<stop offset="0" stop-color="#9d7c90"/>
			<stop offset="1" stop-color="#775477"/>
		</linearGradient>
		<linearGradient id="g71" x2="1" gradientUnits="userSpaceOnUse" gradientTransform="matrix(4.455,-43.7,270.073,27.532,1805.528,1182.087)">
			<stop offset="0" stop-color="#9d7c90"/>
			<stop offset="1" stop-color="#775477"/>
		</linearGradient>
		<linearGradient id="g72" x2="1" gradientUnits="userSpaceOnUse" gradientTransform="matrix(1.686,-16.537,28.762,2.932,1712.085,1163.422)">
			<stop offset="0" stop-color="#9d7c90"/>
			<stop offset="1" stop-color="#775477"/>
		</linearGradient>
		<linearGradient id="g73" x2="1" gradientUnits="userSpaceOnUse" gradientTransform="matrix(-30.673,0,0,-9.171,1295.432,1009.156)">
			<stop offset="0" stop-color="#9d7c90"/>
			<stop offset="1" stop-color="#775477"/>
		</linearGradient>
		<linearGradient id="g74" x2="1" gradientUnits="userSpaceOnUse" gradientTransform="matrix(-68.98,0,0,-35.261,1659.229,1118.484)">
			<stop offset="0" stop-color="#9d7c90"/>
			<stop offset="1" stop-color="#775477"/>
		</linearGradient>
		<linearGradient id="g75" x2="1" gradientUnits="userSpaceOnUse" gradientTransform="matrix(-16.067,0,0,-24.702,984.31,1045.691)">
			<stop offset="0" stop-color="#9d7c90"/>
			<stop offset="1" stop-color="#775477"/>
		</linearGradient>
		<linearGradient id="g76" x2="1" gradientUnits="userSpaceOnUse" gradientTransform="matrix(-97.751,0,0,-30.388,1332.686,994.433)">
			<stop offset="0" stop-color="#9d7c90"/>
			<stop offset="1" stop-color="#775477"/>
		</linearGradient>
		<linearGradient id="g77" x2="1" gradientUnits="userSpaceOnUse" gradientTransform="matrix(-1933.216,0,0,-194.272,1922.459,994.589)">
			<stop offset="0" stop-color="#776d90"/>
			<stop offset="1" stop-color="#775477"/>
		</linearGradient>
	</defs>
	<style>
		.s0 { fill: url(#g1) } 
		.s1 { opacity: .6;mix-blend-mode: multiply;fill: url(#g2) } 
		.s2 { opacity: .6;mix-blend-mode: multiply;fill: url(#g3) } 
		.s3 { opacity: .6;mix-blend-mode: multiply;fill: url(#g4) } 
		.s4 { fill: url(#g5) } 
		.s5 { fill: #7a92d7 } 
		.s6 { opacity: .6;mix-blend-mode: multiply;fill: url(#g6) } 
		.s7 { opacity: .6;mix-blend-mode: multiply;fill: url(#g7) } 
		.s8 { opacity: .6;mix-blend-mode: multiply;fill: url(#g8) } 
		.s9 { opacity: .6;mix-blend-mode: multiply;fill: url(#g9) } 
		.s10 { opacity: .6;mix-blend-mode: multiply;fill: url(#g10) } 
		.s11 { opacity: .6;mix-blend-mode: multiply;fill: url(#g11) } 
		.s12 { opacity: .6;mix-blend-mode: multiply;fill: url(#g12) } 
		.s13 { opacity: .6;mix-blend-mode: multiply;fill: url(#g13) } 
		.s14 { fill: url(#g14) } 
		.s15 { opacity: .6;mix-blend-mode: multiply;fill: url(#g15) } 
		.s16 { opacity: .6;mix-blend-mode: multiply;fill: url(#g16) } 
		.s17 { opacity: .6;mix-blend-mode: multiply;fill: url(#g17) } 
		.s18 { opacity: .6;mix-blend-mode: multiply;fill: url(#g18) } 
		.s19 { opacity: .6;mix-blend-mode: multiply;fill: url(#g19) } 
		.s20 { opacity: .6;mix-blend-mode: multiply;fill: url(#g20) } 
		.s21 { opacity: .6;mix-blend-mode: multiply;fill: url(#g21) } 
		.s22 { opacity: .6;mix-blend-mode: multiply;fill: url(#g22) } 
		.s23 { fill: url(#g23) } 
		.s24 { fill: #97aed7 } 
		.s25 { opacity: .6;mix-blend-mode: multiply;fill: url(#g24) } 
		.s26 { opacity: .6;mix-blend-mode: multiply;fill: url(#g25) } 
		.s27 { opacity: .6;mix-blend-mode: multiply;fill: url(#g26) } 
		.s28 { opacity: .6;mix-blend-mode: multiply;fill: url(#g27) } 
		.s29 { opacity: .6;mix-blend-mode: multiply;fill: url(#g28) } 
		.s30 { opacity: .6;mix-blend-mode: multiply;fill: url(#g29) } 
		.s31 { opacity: .6;mix-blend-mode: multiply;fill: url(#g30) } 
		.s32 { opacity: .8;mix-blend-mode: multiply;fill: url(#g31) } 
		.s33 { opacity: .8;mix-blend-mode: multiply;fill: url(#g32) } 
		.s34 { fill: url(#g33) } 
		.s35 { opacity: .6;mix-blend-mode: multiply;fill: url(#g34) } 
		.s36 { fill: url(#g35) } 
		.s37 { fill: #aabdf9 } 
		.s38 { opacity: .6;mix-blend-mode: multiply;fill: url(#g36) } 
		.s39 { opacity: .6;mix-blend-mode: multiply;fill: url(#g37) } 
		.s40 { fill: #857276 } 
		.s41 { mix-blend-mode: soft-light;fill: #a29396 } 
		.s42 { fill: url(#g38) } 
		.s43 { opacity: .6;mix-blend-mode: multiply;fill: url(#g39) } 
		.s44 { fill: url(#g40) } 
		.s45 { fill: url(#g41) } 
		.s46 { fill: url(#g42) } 
		.s47 { opacity: .5;mix-blend-mode: multiply;fill: url(#g43) } 
		.s48 { opacity: .5;mix-blend-mode: multiply;fill: url(#g44) } 
		.s49 { opacity: .5;mix-blend-mode: multiply;fill: url(#g45) } 
		.s50 { mix-blend-mode: soft-light;fill: #907f82 } 
		.s51 { opacity: .5;mix-blend-mode: multiply;fill: url(#g46) } 
		.s52 { opacity: .5;mix-blend-mode: multiply;fill: url(#g47) } 
		.s53 { mix-blend-mode: soft-light;fill: #725c60 } 
		.s54 { opacity: .5;mix-blend-mode: multiply;fill: url(#g48) } 
		.s55 { fill: url(#g49) } 
		.s56 { opacity: .5;mix-blend-mode: multiply;fill: url(#g50) } 
		.s57 { opacity: .5;mix-blend-mode: multiply;fill: url(#g51) } 
		.s58 { fill: url(#g52) } 
		.s59 { fill: #755559 } 
		.s60 { opacity: .6;mix-blend-mode: multiply;fill: url(#g53) } 
		.s61 { opacity: .6;mix-blend-mode: multiply;fill: url(#g54) } 
		.s62 { opacity: .3;mix-blend-mode: multiply;fill: url(#g55) } 
		.s63 { opacity: .3;mix-blend-mode: multiply;fill: url(#g56) } 
		.s64 { opacity: .3;mix-blend-mode: multiply;fill: url(#g57) } 
		.s65 { opacity: .3;mix-blend-mode: multiply;fill: url(#g58) } 
		.s66 { opacity: .5;mix-blend-mode: multiply;fill: url(#g59) } 
		.s67 { opacity: .3;mix-blend-mode: multiply;fill: url(#g60) } 
		.s68 { opacity: .3;mix-blend-mode: multiply;fill: url(#g61) } 
		.s69 { opacity: .3;mix-blend-mode: multiply;fill: url(#g62) } 
		.s70 { mix-blend-mode: soft-light;fill: #b59aa0 } 
		.s71 { mix-blend-mode: soft-light;fill: #92959b } 
		.s72 { fill: url(#g63) } 
		.s73 { fill: url(#g64) } 
		.s74 { opacity: .6;mix-blend-mode: multiply;fill: url(#g65) } 
		.s75 { fill: url(#g66) } 
		.s76 { fill: url(#g67) } 
		.s77 { fill: #271624 } 
		.s78 { opacity: .3;mix-blend-mode: multiply;fill: url(#g68) } 
		.s79 { opacity: .3;mix-blend-mode: multiply;fill: url(#g69) } 
		.s80 { opacity: .5;mix-blend-mode: multiply;fill: url(#g70) } 
		.s81 { opacity: .5;mix-blend-mode: multiply;fill: url(#g71) } 
		.s82 { opacity: .5;mix-blend-mode: multiply;fill: url(#g72) } 
		.s83 { fill: #866d6a } 
		.s84 { fill: #a59391 } 
		.s85 { mix-blend-mode: soft-light;fill: #aa9d9f } 
		.s86 { fill: #8d7c7f } 
		.s87 { opacity: .5;mix-blend-mode: multiply;fill: url(#g73) } 
		.s88 { opacity: .8;mix-blend-mode: multiply;fill: url(#g74) } 
		.s89 { opacity: .8;mix-blend-mode: multiply;fill: url(#g75) } 
		.s90 { opacity: .8;mix-blend-mode: multiply;fill: url(#g76) } 
		.s91 { fill: #766165 } 
		.s92 { mix-blend-mode: soft-light;fill: #373991 } 
		.s93 { fill: #373991 } 
		.s94 { mix-blend-mode: multiply;fill: url(#g77) } 
	</style>
	<g id="cave">
		<g id="&lt;Group&gt;">
			<g id="&lt;Clip Group&gt;" clip-path="url(#cp1)">
				<g id="&lt;Group&gt;">
					<g id="&lt;Group&gt;">
					</g>
				</g>
				<g id="&lt;Group&gt;">
					<path id="&lt;Path&gt;" class="s0" d="m453.7 104.5l-4.4 6.6-10.3 190.9 3 24.9-10.7 134.9-5.4 8.3-18 51h-6.3l-41.4-296.5-10.7-29.1-30.1-199.5 145.9-3.8z"/>
					<path id="&lt;Path&gt;" class="s1" d="m465.3-7.8l-11.6 112.3-4.4 6.6-10.3 190.9 3 24.9-10.7 134.9-5.4 8.3-18 51h-6.3l21.4-57.5 10.4-196.4v-35.5l-10.4-47.7-21.2 197.3-10.1 69.1 7.6-90.3 19.1-363-31.9-1.2-14.3 26.7-5.3 156-2.3-97.9-6.1-71.5-39.1-13.2z"/>
					<path id="&lt;Path&gt;" class="s2" d="m360.2 224.6l6.2-33.2-3.1 9-13.8-4.9z"/>
					<path id="&lt;Path&gt;" class="s3" d="m358.5 9.2l-1-14.2 20.7-2.8-6 30.4-5.3 156-2.3-97.9z"/>
				</g>
				<g id="&lt;Group&gt;">
					<path id="&lt;Path&gt;" class="s4" d="m1385.6 1133.3l102.1-555.6 13.4-21.2 56.6-555.9h367.6v1092.6z"/>
					<path id="&lt;Path&gt;" class="s5" d="m1385.6 1133.3l102.1-555.6-0.6 79.4-8.2 116.8 73.3-407.2-15 290.4 7.5 12.2v-69.9l48.2-467.2-22.3 576.9-11.7-22.9-5.5 30.5 5.5 39.3v81l9.1-104.1-9.1 234.2 5 71.1 46.7-529.1-11.8 457.6 13.4 149.8z"/>
					<path id="&lt;Path&gt;" class="s6" d="m1487.7 577.7l-46.7 327v123.7l3.5 40.5 47.7-274.1 22.5-149.4-35.8 128.5 28.3-148.4 37.5-161.5-15 147-59.6 403.8-6 63 9-7.7 14-67.1 42.6-113.4-24.2 168.4-7.4 37.5h60.8l96.5-1094.9 33.4-7.4-53.4 394.4-13.3 106.5 13.4-30.1 29.9-186.2-22.4 216.3-7.5 238.8-1.7-213.1-12.5 60.9-41.6 386.4 19.1 128.4h13.4l9.1-126.1 12.5-209.3-6.6 355.3-241.6 17.9z"/>
					<path id="&lt;Path&gt;" class="s7" d="m1612.2 0.6l-37.3 263.3-30.2 200.1 33.7-439.2-20.7-24.2z"/>
					<path id="&lt;Path&gt;" class="s8" d="m1673.4 1111.9l56.2-724.3 20.8-387h20l-35 433.3-22.5 381.7 16.7 113.4 33.3-651.2 38.3-277.2h14.1l-49.9 656.5 5 447.6 28.2-2.1 100-608.5 26.7-216.3v815.4z"/>
					<path id="&lt;Path&gt;" class="s9" d="m1688.8-6.8l-66.7 500.9-29.2 215 62.5-708.5z"/>
					<path id="&lt;Path&gt;" class="s10" d="m1458.9 1133.3l10.8-116.4 60-405.9 15-147-30.7 186.2-79.1 479.5z"/>
					<path id="&lt;Path&gt;" class="s11" d="m1717.9 1108.6l10.7-186.5 36.2-658.2 16.8 180.6-16.2 212.6-15.7 44-20.1 406.7z"/>
					<path id="&lt;Path&gt;" class="s12" d="m1673.4 1111.9l33.6-432.8 24-170-18.1 306.5-18.3 294.8z"/>
					<path id="&lt;Path&gt;" class="s13" d="m1612.2 1116.5v-21l21.6-335.4-6.6 355.3z"/>
				</g>
				<g id="&lt;Group&gt;">
					<path id="&lt;Path&gt;" class="s14" d="m328.6 1125.1l-102-555.6-13.4-21.2-56.7-555.9h-367.5v1092.6z"/>
					<path id="&lt;Path&gt;" class="s5" d="m328.6 1125.1l-102-555.6 0.6 79.4 8.2 116.7-73.3-407.1 15 290.4-7.5 12.2v-69.9l-48.3-467.2 22.4 576.9 11.7-22.9 5.4 30.5-5.4 39.3v81l-9.1-104.1 9.1 234.2-5.1 71.1-46.6-529.2 11.7 457.7-13.3 149.8z"/>
					<path id="&lt;Path&gt;" class="s15" d="m226.6 569.5l46.7 327v123.7l-3.5 40.5-47.8-274.1-22.4-149.4 35.8 128.4-28.3-148.3-37.5-161.5 15 147 59.6 403.7 6 63.1-9-7.7-14-67.1-42.6-113.4 24.1 168.4 7.5 37.5h-60.8l-96.6-1094.9-33.3-7.4 53.3 394.4 13.3 106.4-13.3-30-30-186.3 22.5 216.3 7.5 238.9 1.7-213.1 12.5 60.9 41.6 386.4-19.2 128.4h-13.3l-9.1-126.1-12.5-209.3 6.6 355.2 241.5 18z"/>
					<path id="&lt;Path&gt;" class="s16" d="m102.1-7.6l37.3 263.3 30.2 200.1-33.8-439.3 20.7-24.1z"/>
					<path id="&lt;Path&gt;" class="s17" d="m40.9 1103.7l-56.2-724.3-20.8-387h-20l35 433.3 22.5 381.7-16.7 113.4-33.3-651.3-38.3-277.1h-14.2l50 656.5-5 447.6-28.2-2.1-100.1-608.6-26.6-216.3v815.5z"/>
					<path id="&lt;Path&gt;" class="s18" d="m25.5-15l66.6 500.8 29.2 215.1-62.5-708.5z"/>
					<path id="&lt;Path&gt;" class="s19" d="m255.4 1125.1l-10.9-116.4-59.9-405.9-15-147 30.7 186.2 79.1 479.4z"/>
					<path id="&lt;Path&gt;" class="s20" d="m-3.6 1100.4l-10.7-186.5-36.2-658.2-16.8 180.6 16.2 212.6 15.6 44 20.2 406.6z"/>
					<path id="&lt;Path&gt;" class="s21" d="m40.9 1103.7l-33.6-432.8-24-170.1 18.1 306.6 18.3 294.7z"/>
					<path id="&lt;Path&gt;" class="s22" d="m102.1 1108.3v-21l-21.6-335.4 6.6 355.2z"/>
				</g>
				<g id="&lt;Group&gt;">
					<path id="&lt;Path&gt;" class="s23" d="m1925.8 1052.5l-20.7 42.5-21.9-212.6-14.6-43.6-71.6-666.8-87.6-62.2h-37l-103.3 149.4-7.3 2.7-35.3 121.1-29.9 23.5-5.9-7.6-20.4-48.4v-28.4l-20.4-86.5 7.3-9.6-7.3 0.7-108.8-188.2-192.6-38.7h777.3z"/>
					<path id="&lt;Path&gt;" class="s24" d="m1868.6 838.8l-46.4-432.3 10.6 44.8-3.8-5.7 0.9 12.4 6.9 56.1 19 60.6 8 19.8-17.6-100.2-8.7-32.1 14.3 42.3 8.3 35.5-22.3-201.6-15.6-45.3-16.5-57.1v17.2l-5.4-50 9 31.6-1.3 1.2 18 61.2 10 27.1-0.7-5.5 19.2 89.8 2.4 11-5.9-13.1-1.8-2.7 12.2 61.7 36.4 123.6 19.5 39.1-4.9-86.8 10.7 100.8 2.7 50.7-11-57.5-33.1-46.3-7 10.5 6.9 48.9 35.7 235.9-24.4-111.3-8.3-36 7.8 81.6v57.1z"/>
					<path id="&lt;Path&gt;" class="s24" d="m1496.6 406.5l29.9-23.5 35.3-121.1 9.7-2.5 79-117.2-31.5 40.5-14.1 9.7-6.5 24.5-7.4 3.2-18.2 5.9 22.1-42.9 25.1-35.9-30.7 28.7 1.5-4.6 0.7-10-24.3 31.8 8-1.7-23.6 24.9v-5.2l7.3-39.8 5-79.8-18.1 99.4-10.4 9.7-6.8 26.1 11-226.9-22.7 165.6-3.3 87.1h-5.4l-15.7-16.9-1.8-5.8-33.5-3.8-7.3 9.6 20.4 86.5v28.4l20.4 48.4z"/>
					<path id="&lt;Path&gt;" class="s25" d="m1859.2 751.3l9.4 87.5 23.8 37v-62.2l-16.6-167.1v37.8l-25.7-261 42.3 303 24.9 158.1 5.8 5.6v-247.8l-10.7-100.8-48.7-234.1-18.5-24.4-12.2-21 13.2 142.5-21.4-168.4-6.4-12.8-21.4-51.2 49.2 64 31.1 78.3 24.1 141.6 13.9 33.6-5.1-253.5-50.1-236.2h29.3l14.2 90.4 3.3 41.5-10.9-53.4-12.1-28 41.9 185.7-0.3 713.8-36.3-9.2-6-58.2-18.5-45.7z"/>
					<path id="&lt;Path&gt;" class="s26" d="m1672.4 109.8l3-16.5 18.6-25.9 32.5-67.6h-6.5l-88.1 130.4-94.7 101.6-1.8-9.8 1.8-25.4-8.6 30.1-4-76.8 15-150.1h-20.5l-5.5 264.1-15.6 114.8 9.4-26 0.8 15.1-17.5 31.1 5.9 7.6 29.9-23.5 35.3-121.1 9.7-2.5z"/>
					<path id="&lt;Path&gt;" class="s27" d="m1449.9 235.6l39.7 4.2 4.8 3.5 17.2 35.7 2-15.1-21.1-28.3-10.8-103.7 9 19.1-19.4-153.3-21.4 0.3 23.1 111.8 17.7 120-3.4 0.3-53-232.7h-21.9l63.3 231.3-18.5-2.7z"/>
					<path id="&lt;Path&gt;" class="s28" d="m1397.8-2.6l-38.3 26.9-18.4 14.2-192.6-38.7z"/>
					<path id="&lt;Path&gt;" class="s29" d="m1561.8 261.9h-21.9l-8.9 2-22.8 103.9-17.5 31.1 5.9 7.6 29.9-23.5z"/>
					<path id="&lt;Path&gt;" class="s24" d="m1925.8 252.5l-29.9-83.8-34.5-114.3 1.7 24.9-10.6-24.9-29.2-54.6h-14l23.7 62.9 59.9 116.2-14.6-40.7-15.2-47.1 57.6 159.1 6.3 22.8-16.5-20.5-64.3-105.3-36.9-72.7 6.7 5.2 30.2 44.9-69.6-124.8h-8.3l28.7 48.7 9.5 24.6-40.8-31.5-29.3-41.8h-4.2l116.9 162.2 76.5 117z"/>
					<path id="&lt;Path&gt;" class="s30" d="m1672.4 109.8l3-16.5 18.6-25.9 2.2-32.4-64.3 95.2-94.7 101.6 34.3 27.6z"/>
					<path id="&lt;Path&gt;" class="s31" d="m1925.8 236l-41.9-185.7-23.8-50.5 50.1 236.2 5.1 253.5-13.9-33.6-2.8 18.9 13.8 66.6 10.7 100.8z"/>
					<path id="&lt;Path&gt;" class="s32" d="m1726.5-0.2l-8.9 38.7 30.5 46.4 61.2 87.1 36.9 64h-21.4l-27.8-64-87.6-62.2h-37l3-16.5z"/>
					<path id="&lt;Path&gt;" class="s33" d="m1537.2 231.8l-23.6 32.1-21.1-28.3-1.8-5.8-33.5-3.8-7.3 9.6 39.7 4.2 4.8 3.5 17.2 35.7 19.4-15.1 8.9-2h21.9l9.7-2.5z"/>
					<path id="&lt;Path&gt;" class="s24" d="m1860.1 198.6l-13.9-15.5h-5.4z"/>
					<path id="&lt;Path&gt;" class="s24" d="m1563.9 91.5l-9.9-36-6.3-9.4-10-7.6-1.3 26.5 3.5-11.3 11.7 4.2z"/>
					<path id="&lt;Path&gt;" class="s24" d="m1572.8 96.6v-27.6l22.8-51-11.4 39.3z"/>
				</g>
				<g id="&lt;Group&gt;">
					<path id="&lt;Path&gt;" class="s34" d="m1286.9-4.5l-15.6 210.3-10.2 9.3-4.4 127.3-3.4 41.8h-5.3v-46.5l-15.6-40.6-16.6-135.6-42.3-15.2-10.3-11.1-35-139.7z"/>
					<path id="&lt;Path&gt;" class="s35" d="m1272.8 186.1v-172.4l-11-11.3-8 130.2 9.5 69.7 8 3.5-10.2 9.3-3.6-30.4-22.2-102.7-9.7-12.5 16 215.2 7.6 17.6 11.3-70.6-3.4 100.6-3.8 51.9h-5.3v-46.5l1.2-17-10.7-36-18.3-202.4-4.4-86.8h-9.4l9.8 150.8 16.2 150.8-16.6-135.6-5.1-1.8-12-125.4-8.1-20.6 1.8 60.2-5-34.1-2.6-25.6-11.3-12.6 14.9 139.3 22.3 18.8-37.2-13.4-10.3-11.1 18.7-2.6 0.3-24.4-19.7-112.7h124.4z"/>
				</g>
				<g id="&lt;Group&gt;">
					<path id="&lt;Path&gt;" class="s36" d="m1562.3 1074.7l69.4 24.1 49.2-72.9 63.3 12.9 1.8-204.9-0.4-8.8-7.5-9.1 9.7-540.2-2.7-5.8-4.3-4.1 5.9-19.3-19.4-44.7-5.1-29.3-17.5-14.3-25.8 124.7 2.6 5.8-33.6 237.9-1.7 1-4.8 3.1-41.1 338.2 3.2 7.1 5.7 12.6-8.1-1.1z"/>
					<path id="&lt;Path&gt;" class="s37" d="m1704.7 158.3l17.5 14.3 5.1 29.3 19.4 44.7-5.5-5.6-8.5-16.4 0.9-2.8-4.8-12.8-3.1 2.1 5.1 19.2-0.2 11.9-2 11 4.2 5.9 8 6.8 4.3 4.1 2.7 5.8-0.5 31.8-1.4 75-1-31.9 0.4-10.1-2.2-20.5-5.9-9.9-2.4 7-0.3 18.3-0.1 14.2-3.6 63-0.5-33.2 1.2 1.3 1.6-27.6-0.3-12.5-1.4-11-3.8 1.5-3.6 18.5-1.7 75.1-1.7 74.8-1.3-91.8 2-3.6v-6.8l-6.3-46.6-2.2-4.5-2.5 15.9-5.6 10.7-2.3 28-7.4 46.3 3.4-66 4 0.7v-31.1l-1.6-49.8-5.8-4.9-7.8 7.6-4.6 57.8-2.2 29.7v84.9l2.9 23.5 0.5 37.9 10-68.5-6.4 73.4-4.3 25.8 0.3-29.5-1.3 0.3 1.2-39.4-5.4 3.7v-52.9-26l-6.8-10-9 12 19.4-137.6-2.6-5.8z"/>
					<path id="&lt;Path&gt;" class="s38" d="m1603.5 876.1l5.7 12.6 34.4-16 42-10.6 7.4-6.3-12.1 170.1 63.3 12.9 1.8-204.9-0.4-8.8-7.5-9.1 9.7-540.2-2.7-5.8-4.3-4.1 5.9-19.3-19.4-44.7-5.1-29.3-7.4 0.6 5.2 37 10.6 32-2 11-9.8 20.1-7-2.4-26 17.2-6.9-5.1 2.6 5.8 1.9 4 25-15.9 11.9 1.7 5.1 8.4-7.1 314-9.2 4.9-9.7-3.4-22.6-23.5-28.9-52.3h-2.2l0.5 1 27.5 52.8 28.7 28.6 13.3 4.5-16 1.3-13.2 231.2-29.4 20.6-14 3.8-26.9 10.4z"/>
					<path id="&lt;Path&gt;" class="s39" d="m1657.1 866.7l28.5-4.6 7.4-6.3-12.1 170.1 63.3 12.9 1.4-213.7h-11.7l-15.2 1.7 19.4-10.8 9.7-540.2h-14.3-10.3l17.6-9.9 5.9-19.3-19.4-44.7-7.3 8.3 10.6 32-2 11-9.8 20.1-7-2.4-3.4 6 11.9 1.7 5.1 8.4-7.1 314-9.2 4.9-9.7-3.4 3 6.6 13.3 4.5-16 1.3-13.2 231.2z"/>
					<path id="&lt;Path&gt;" class="s40" d="m1715.7 613.6l-16 1.3-9.9-1.3-17.8-27.9-12.2-28.8-18.4-26.1 4.8-3.1 15 28.9 14.5 25.9 26.7 26.6z"/>
					<path id="&lt;Path&gt;" class="s40" d="m1693 855.8l-5.6 15.4-25.3 3.2-40.1 13.4-22.2 6.1 1.9-9.2 7.7 1.1 12.6-3.1 36.7-16.3z"/>
					<path id="&lt;Path&gt;" class="s41" d="m1628.6 636.7l5.4 45.7 2.1-13.8 10.3-62.9h11.7l-14.8 236.6h-16v-59.7l-8.1 78.3-15.7 15.2-3.9-11.9z"/>
					<path id="&lt;Path&gt;" class="s41" d="m1658.7 866.4l8.4-98.9 18-98.9h4.7l-22.7 191z"/>
					<path id="&lt;Path&gt;" class="s41" d="m1562.3 1074.7l37.5-180.8 22.2-6.1-10.8 49.8-19 124.6-4.5 3.1 17.3-108.3-1.5-5.9-22.6 130.1z"/>
					<path id="&lt;Path&gt;" class="s41" d="m1702.4 609.1l15.9-8.1 1.3-172.8-3.9-20.4-13.3 184.9z"/>
				</g>
				<g id="&lt;Group&gt;">
					<path id="&lt;Path&gt;" class="s42" d="m-4.1 938.3v285.4h1927.6v-153.3l-462-76-613.5-88.9z"/>
					<path id="&lt;Path&gt;" class="s43" d="m593.8 972.6l77 8.2 180.6 28.6 73.3-15 179-9-192.2 13.9-62.7 15.6 2.6 3.5 116.8 27.3h16.1l85-18 98.6-1.9 116.8-9 10.7-7.6-63.8-15.6 109.8 23.2 463.3 34.1-267 0.2-202.3-26.1-96-0.4-246.3 26.5h-14.9l92.3 42 122.9 12 198.7 31.1 69.4 5.7 462 11.9v19.9l-841.1-50.6-50.4 4.4 58.6 68.6 706.3 27.6h-135.6l-566-22.1-63.3-74.1 37.3-22.9-245.4-87.8-259.8-42.1z"/>
					<path id="&lt;Path&gt;" class="s37" d="m811.5 942.8l-226.1 23.7-130.3 6.1 157.7-3 41.4 3-347.2 8.2-241.1-29.3-70-2.6v-10.6l59.8-7h69.3l6.5-6 21-13.3 82 13.7 1.8 1.7 12.1-0.4 87.9 3.1 83.2 0.8 101.3 0.4z"/>
					<path id="&lt;Path&gt;" class="s37" d="m-4.1 947.3v276.4l1149.1-0.9-271.5-9.2 88.9-2.7 69.6-12.5 63.3 3.2-26-30.5-37.3-43.6 42.9-4.4-5.6-18.5-245.4-87.8-259.8-42.1z"/>
					<path id="&lt;Path&gt;" class="s44" d="m844.3 1036.4l-16.3-13.1-203.5-34.9-127.1-11.7-9.7 4.1v11.5l33.1 24.5z"/>
					<path id="&lt;Path&gt;" class="s45" d="m1018.4 1110l-6.6-9.5-269-64.1-172.3-11.4c0 0-141-6.6-158.5-6.6-17.6 0-32.5 5.3-32.5 5.3l157.4 50.3c0 0 154.3 30.6 177.2 30.6 22.9 0 248.3 10.9 248.3 10.9z"/>
					<path id="&lt;Path&gt;" class="s46" d="m876.5 1135.7c0 0-6.5 6-37.7 6-31.2 0-90.6-6-90.6-6l-10.4-5.5-15.5-19.1 6.4-3.5 104.5 9.1c0 0 36.6 11.5 43.3 19z"/>
					<path id="&lt;Path&gt;" class="s47" d="m1461.5 994.4l-166.1 5.5-10.6 6.7 56.6 10.2 27.9 12.6 8.9-9.1 40.9 3.9 4.8 12.2-88.5-11.4-96-0.4-5.5-3.9 50.8-3.9 10.7-7.6-60.5-14.8z"/>
					<path id="&lt;Path&gt;" class="s48" d="m924.7 994.4l-13.2 4.9-62.7 15.6 2.6 3.5 116.8 27.3h16.1v5.4h-6.1l92.3 42 11.9 30 202.5 10 3.5-13.1 98 15.3v6.1l-306.9-18-47.5 4.1 37.3-22.9-245.4-87.8-156.4-25.3 67-3.1 12.7 3.9 89.1 14.3 15.1 2.8z"/>
					<path id="&lt;Path&gt;" class="s49" d="m1291.2 1209.3l-7.2-5.7-193.4-7.5 4.7 5.5z"/>
					<path id="&lt;Path&gt;" class="s50" d="m968.2 1045.7h16.1l85-18 98.6-1.9 116.8-9 10.7-7.6-60.5-14.8-113.3-10.3-205.7 14.7-67.1 16.1 2.6 3.5z"/>
					<path id="&lt;Path&gt;" class="s51" d="m1095.6 1040.1l-26.3-12.4-42.3 9v10.8z"/>
					<path id="&lt;Path&gt;" class="s52" d="m1108.3 1038.7l-7.3-11.6 13.2-0.3 4.5 10.8z"/>
					<path id="&lt;Path&gt;" class="s53" d="m851.4 1009.4l73.3-15 170.9-9.4h-181.9l-175.9 4.4 9.4 2.9z"/>
					<path id="&lt;Path&gt;" class="s50" d="m1032 1127.5l50.4-4.4 561.9 32.8-109.9 57.5-443.8-17.3z"/>
					<path id="&lt;Path&gt;" class="s53" d="m1804.7 1050.9l-438.2-31.7-50.6-7-81-17.8h226.6l227.5 35.6z"/>
					<path id="&lt;Path&gt;" class="s54" d="m403.7 1018.4l174.1 57.3 328.6 31.9 105.4-7.1 6.6 9.5-54.8 13.1-78.1 1.5 3.4 12.7-65 10.4-86.1-9.7c0 0-99.1-40.7-126.4-46.5-27.3-5.8-240.7-46.1-240.7-46.1l2.9-20.9z"/>
					<path id="&lt;Path&gt;" class="s55" d="m759.6 1164.8l7.2-13.9c0 0-94.1-42.8-126-51.8-31.9-9-238.7-53.7-270.1-53.7-31.4 0-150.8 7.9-177.6 21.6-26.8 13.6-55 57.6-55 57.6l19.5 17.1c0 0 187.9 65.4 242 71.9 54 6.6 360-48.8 360-48.8z"/>
					<path id="&lt;Path&gt;" class="s56" d="m179.8 1075.9c0 0-29.5 33.6-29.5 39.6 0 6 198.1 76.3 269.2 86.1 71.1 9.9 347.3-50.7 347.3-50.7l-7.2 13.9c0 0-241.7 59.2-367.8 54.8-126.1-4.3-274.1-89.8-274.1-89.8l3.4-14.3 72-48.5z"/>
					<path id="&lt;Path&gt;" class="s57" d="m828 1023.3l-227.2-4.9-84.8-9-28.3-28.6v11.5l33.1 24.5 323.5 19.6z"/>
					<path id="&lt;Path&gt;" class="s41" d="m640.8 1099.1l-7.5 48.6c0 0-103 67-229.6 51.2-156.7-19.5-208.3-124.4-208.3-124.4 0 0 167.5-30.4 180.7-28.8 13.2 1.6 264.7 53.4 264.7 53.4z"/>
					<path id="&lt;Path&gt;" class="s58" d="m244.2 927.4h-44.9l-63.9-7v-10.1l14.4-9.1c0 0 43.3 5 94.4 26.2z"/>
					<path id="&lt;Path&gt;" class="s59" d="m633.3 1147.7l45.9 21.2 87.6-18c0 0-90.3-41-126-51.8z"/>
					<path id="&lt;Path&gt;" class="s59" d="m742.8 1036.4l143.9 56.7 67.5 11.3 57.6-3.9z"/>
					<path id="&lt;Path&gt;" class="s60" d="m236.3 927.4l22.1 6.6 418.6 2.7-156.2-5.4z"/>
					<path id="&lt;Path&gt;" class="s61" d="m138.1 921.1v10.2l62.8 3.5-46.7-0.3-16.1 0.4-20.4 0.5-30 8.9 34.3 4.6 94.2 5.7h-220.3v-16.3l59.8-7h69.3l6.5-6z"/>
					<path id="&lt;Path&gt;" class="s62" d="m354.2 1006.6l-201.7-14.3-156.6 14.3z"/>
					<path id="&lt;Path&gt;" class="s63" d="m195.4 1038.7l-77.7-1.1-62 7.8z"/>
					<path id="&lt;Path&gt;" class="s64" d="m-4.1 1128.4l196.6 66.3-111.4-17.4 155.2 46.4h-240.4z"/>
					<path id="&lt;Path&gt;" class="s65" d="m1069.3 1171.1l2.8 14.2h-56.5l-109.2 10.8-272.5 17.5h239.6l88.9-2.7 69.6-12.5 63.3 3.2z"/>
					<path id="&lt;Path&gt;" class="s66" d="m962.4 1210.9l-21.7-18.5-47.9 4.6-258.9 16.6 247.2-0.2z"/>
					<path id="&lt;Path&gt;" class="s37" d="m1479 1043.5l-299.4 60.3 13.8 1.3 173.1-12-106.9 22.4 9.2 1.4 239.3-32.7 14.7-2-29.2 10.9-107.3 22.4 313.1-42.1-75.2-26.2z"/>
					<path id="&lt;Path&gt;" class="s67" d="m1193.4 1105.1l177.1-16.3 112.1-12.3-116.1 16.6z"/>
					<path id="&lt;Path&gt;" class="s68" d="m1268.8 1116.9l148.3-23.8 252.2-30.5-131.6 19.6h-14.9z"/>
					<path id="&lt;Path&gt;" class="s69" d="m1386.3 1115.5l295-48.6 18.1 6.5z"/>
					<path id="&lt;Path&gt;" class="s70" d="m536.9 1074l-204.6 108.4v15.3l-17.1-4.9-3.7-16.8 219.2-103.9z"/>
					<path id="&lt;Path&gt;" class="s71" d="m484.5 1064.6l-255.4 50.9-34.1 19.4-1.9 18.9-35.5-12.1-7.3-26.2 50.6-30 258.1-26z"/>
					<path id="&lt;Path&gt;" class="s71" d="m742.8 1036.4l-255.1 9-3.2 11.9-86.8-28.6 6-10.3 237.1 11.2z"/>
					<path id="&lt;Path&gt;" class="s71" d="m1164.7 1127.9l-4.2-26 204.3-73.1-15.1-2-199 74.6 0.2 25.1-42.7-2.1-4.1-28 127.5-71-13.2 1.4-123.1 68.8 5.5 28.4z"/>
					<path id="&lt;Path&gt;" class="s71" d="m1470.8 1146.5l-270.5 51.2-57.9-1.6 297.3-51.5z"/>
					<path id="&lt;Path&gt;" class="s70" d="m1537.7 1150.5l-185 55.8 94.9 3.7 135.5-56.8z"/>
					<path id="&lt;Path&gt;" class="s70" d="m1131.6 985.7l-39 41.1-23.3 0.9 57.3-41.6z"/>
					<path id="&lt;Path&gt;" class="s70" d="m1149.6 985.7l-48.6 41.4h7.3l60.5-38.7z"/>
					<path id="&lt;Path&gt;" class="s72" d="m236.3 994.4l-43.2-24.6-37.1-6.6h-13.4l-5.3 20.1 27.8 9z"/>
					<path id="&lt;Path&gt;" class="s73" d="m145.6 989.3l-20.6-8.5h-13.9l-27.5 6.5 12.9 5z"/>
					<path id="&lt;Path&gt;" class="s74" d="m236.3 994.4l-70.4-11.1-12-4.5-11.3-15.6-5.3 20.1-12.3-2.5 10.4 5.7h-20.8l-31 0.8-15.4 2.2 25.1 8.2 59.2-5.4z"/>
					<path id="&lt;Path&gt;" class="s75" d="m360.6 1036.4l-10.2-8.2-38.9-6.5-15.6 2.7 10.7 13.9 42.7-0.4z"/>
					<path id="&lt;Path&gt;" class="s76" d="m844.3 1162l-26.6-8.2h-19.6l-11.8 4.1 25.2 7.3h30.1z"/>
					<path id="&lt;Path&gt;" class="s77" d="m1664.7 1050.9h4.6l-8 6.4 90.1 33.5h17.5l132 43.7 22.6 19.3v19.9h-6.5l4.3-17.8-19.9-16.1-133.8-47.2-17.4-1-107.2-38.4-7.7-2.3z"/>
					<path id="&lt;Path&gt;" class="s37" d="m1834 1055.7l-43.3-12.2-160.3-15.7-84.6 4.3 148.5 10.9-1.4 7.9h-23.6l49.9 19.9 119.7-3.9-89.4 13.3 11.3 2.4 153-13.8z"/>
					<path id="&lt;Path&gt;" class="s78" d="m1545.8 1032.1l98.7 3.5 71.4 7.9 79.8 4.9-102.8 2.5-12.8 1.1 17.5 7.6 62.6 3-55.3-1.2 2.4 3.2 18.4 2.3 126.7-2.3 20.7 2.3h-34.2l-119.7 3.9-49.9-19.9 23.5-1.1 1.5-6.8z"/>
					<path id="&lt;Path&gt;" class="s79" d="m1749.5 1080.2l17.8-0.8 144.3-11 2.2 0.4-153 13.8z"/>
					<path id="&lt;Path&gt;" class="s80" d="m1148 1126.4l-13.1-27-25-2.4v27.8z"/>
					<path id="&lt;Path&gt;" class="s81" d="m1881.5 1171.2v-18.5l-150.7-3.9v13.3z"/>
					<path id="&lt;Path&gt;" class="s82" d="m1721.5 1161.5l-2-12.9-20.1-0.6v12z"/>
					<path id="&lt;Path&gt;" class="s83" d="m1790.7 1149.7l-25.5-5.1-38.7 2.6-35.1-2.6-139.1-0.3z"/>
					<path id="&lt;Path&gt;" class="s77" d="m1750.2 1091.6l25.4 7.8 27.6 5.7 9.6 3.4-37.4-8.4-39.1-10.3-5.5-6.7z"/>
					<path id="&lt;Path&gt;" class="s83" d="m1901.4 1139.8l-30.7 4.8-51.5 5.9 102.1 5.4z"/>
					<path id="&lt;Path&gt;" class="s84" d="m1721.5 1147.8l-34.8-8-59 6.2z"/>
					<path id="&lt;Path&gt;" class="s77" d="m1594.9 1153.9l1.2-9.3 44.2-16.7 96-38.1-1.4-1.7-2.6 1.7-141 55.4-0.1 8.5z"/>
					<path id="&lt;Path&gt;" class="s85" d="m1736.3 1089.8l39.3 9.6 37.2 9.1 88.6 31.3 19.9 16.1-325.2-11.3z"/>
					<path id="&lt;Path&gt;" class="s85" d="m1599.3 1121l-90.6 21.3-87-3.6 67.8-17.7 5.3 1.8 72.1-14.3z"/>
					<path id="&lt;Path&gt;" class="s86" d="m1163.7 1102.2l-15.7-8h-36.4l-41.1-1.1z"/>
					<path id="&lt;Path&gt;" class="s87" d="m1295.4 1009.2l-30.6 9.1 19.9-1.5z"/>
					<path id="&lt;Path&gt;" class="s86" d="m634.9 1137.1l-19.1 20.5 25-6.4z"/>
					<path id="&lt;Path&gt;" class="s86" d="m886.7 1093.1l-22.1 9.1c0 0 33.1 6.4 45.2 5.4 12.2-1.1 42.6-2.7 42.6-2.7z"/>
					<path id="&lt;Path&gt;" class="s86" d="m1127 1196.1l-45.7-10.9 9.3 10.9z"/>
					<path id="&lt;Path&gt;" class="s88" d="m1659.2 1118.5l-15.7 4.6-42 7.9-11 14.2-0.3 8.5h1l0.1-8.5z"/>
					<path id="&lt;Path&gt;" class="s85" d="m1601.5 1131l-18.4-3.1 47.7-12.4 28.4 3-15.7 4.6z"/>
					<path id="&lt;Path&gt;" class="s86" d="m1605.8 1130.2l-11.1-0.3 1.4 8.1z"/>
					<path id="&lt;Path&gt;" class="s77" d="m1095.6 1040.1l-26.3-12.4 15-10.9 45.5-31.9-2.8-0.3-5.4 5.1-44.9 31.2-18.2 9 0.8 1.5 16.3 1.4 11.2 4.8 0.8 3.3z"/>
					<path id="&lt;Path&gt;" class="s77" d="m882.9 1037.9v-12.1l41.5-27.6h-2.8l-40.6 27.1v11.9z"/>
					<path id="&lt;Path&gt;" class="s53" d="m921.6 998.2l-10.1 1.1-62.7 15.6 2.6 3.5 29.6 6.9z"/>
					<path id="&lt;Path&gt;" class="s86" d="m887.2 1021.2l-14.1 2.3 7.9 6.6v-4.8z"/>
					<path id="&lt;Path&gt;" class="s89" d="m978.2 1051.1l-7.3 19.3-2.7-24.7h16.1v5.4z"/>
					<path id="&lt;Path&gt;" class="s90" d="m1300.6 1024.8l-5.2-15.6-60.5-14.8h68.6l6.8 4.7-14.9 0.8-5.9 6.5 40.7 7.8 2.5 10.6z"/>
					<path id="&lt;Path&gt;" class="s86" d="m1213.9 1022.2h-26.2-27.1l-30.8 4.3h33.9z"/>
					<path id="&lt;Path&gt;" class="s86" d="m1534.4 1143.9l-39.1-4.1-39.4-3.7-39.8 1.9-44.6-10.1-62.2-4.6 77.1 12 75.1 6.6z"/>
					<path id="&lt;Path&gt;" class="s91" d="m284.9 1160.8l-18.4-17.4-40.2-27.9 17.2 21.6 17.2 16.7z"/>
					<path id="&lt;Path&gt;" class="s91" d="m742.7 1091.7l-23.7-6.2-90.7-4.9 70.6 6.8z"/>
					<path id="&lt;Path&gt;" class="s70" d="m1758.7 1223.7l60.5-22.4-74.1-21h-81.4l-111.4 33.8 102.2 5.8z"/>
				</g>
				<g id="&lt;Group&gt;" style="opacity: .5;mix-blend-mode: multiply">
					<path id="&lt;Path&gt;" class="s92" d="m349.5 195.5l10.7 29.1 41.4 296.5h6.3l18-51 5.4-8.3 10.7-134.9-3-24.9 10.3-190.9 4.4-6.6 11.6-112.3-87.5 2.2 0.4-2.2-20.7 2.8-38.1 1z"/>
					<path id="&lt;Path&gt;" class="s93" d="m1927 273l-1.2-4.2v-269h-36.4-29.3-36.8-14-32.7-8.3-31.9-4.2-5.7-6.5-32.1l0.9-6.6-29.9 6.6h-119.3-20.5-47.6l-0.2-2.1-21.4 0.3 0.3 1.8h-15.4l-0.5-2.4h-21.9l0.6 2.4h-18.7l3.5-2.4-111.1 1.1 0.2-3h-71.1-9.4-43.9-34.3l35 139.7 10.3 11.1 42.3 15.2 16.6 135.6 15.6 40.6v46.5h5.3l3.4-41.8 0.4-10.1 3.4-100.6 0.6-16.6 10.2-9.3 13.3-178.6 56.5 11.3 108.8 188.2 7.3-0.7-7.3 9.6 20.4 86.5v28.4l20.4 48.4 5.9 7.6 21.5-16.9-17 166.9-13.4 21.2-75.3 409.6-564.4-81.8-555.8 21.4-65.6-357.4-13.4-21.2-56.7-555.9h-54.4-43.3l-33.3-7.4 1 7.4h-62.6-20-30.8-14.2-109.9v277.1 815.5l195.7 14.5 7.3 0.6 3.9 0.3v28 95.3h240.4 1425 135.6 126.6v-50-19.9-60.5l1.8-0.1v-39.5l0.5-1.2v-780.9z"/>
				</g>
				<path id="&lt;Path&gt;" class="s94" d="m-2.6 994.6l165.8 21.6 25.6-16.6 444 42 88.5 33.5 92.1-11.9 56.4 14 101.5-7.5 6.8-18.8 938.7 10.4 5.7 127.6h-1933.3z"/>
			</g>
		</g>
	</g>
</svg>